# xmcd
#
# Track frame offsets:
#	150
#	17607
#	31462
#	43762
#	56987
#	69300
#	80982
#	93757
#	107332
#	122822
#	137827
#	150695
#	163742
#	175697
#	189950
#	202037
#	221302
#	235972
#	247700
#	258110
#	272127
#	286982
#	300107
#
# Disc length: 4154
#
# Revision: 5
# Processed by: cddbd v1.5.1PL0 Copyright (c) Steve Scherf et al.
# Submitted via: Grip 3.2.0
# Normalized: r4:DSETVAR1
#
DISCID=35103817
DTITLE=Various Artist - All Night Long They Play The Blues
DYEAR=1992
DGENRE=Blues
TTITLE0=Little Johnny Taylor - Part Time Love
TTITLE1=Saunders King - S.K. Blues
TTITLE2=Big Mama Thornton - Life Goes On
TTITLE3=Sonny Rhodes - One Of These Days
TTITLE4=Clay Hammond - There's Gonna Be Some Changes
TTITLE5=K.C. Douglas - The Things I Do For You
TTITLE6=Saunders King - What's Your Story, Morning Glory?
TTITLE7=Charles Brown - I'm Gonna Push On
TTITLE8=Phillip Walker - Hey, Hey Baby's Gone
TTITLE9=Clarence Smith - All Night Long They Play The Blues
TTITLE10=K.C. Douglas - Little Green House
TTITLE11=Little Johnny Taylor - The Things That I Used To Do
TTITLE12=Big Mama Thornton - Because It's Love
TTITLE13=J.J. Malone - Danger Zone
TTITLE14=Sonny Rhodes - Country Boy
TTITLE15=Phillip Walker - Laughin' And Clownin'
TTITLE16=Bill Coday - You're Gonna Want Me
TTITLE17=Little Johnny Taylor - Driving Wheel
TTITLE18=Charles Brown - Cry No More
TTITLE19=Rodger Collins - I'm Serving Time
TTITLE20=The Right Kind - You Oughta Slow Dance, Baby
TTITLE21=Little Johnny Taylor - Please Come Home For Christmas
TTITLE22=Merl Saunders - Tighten Up
EXTD=
EXTT0=
EXTT1=
EXTT2=
EXTT3=
EXTT4=
EXTT5=
EXTT6=
EXTT7=
EXTT8=
EXTT9=
EXTT10=
EXTT11=
EXTT12=
EXTT13=
EXTT14=
EXTT15=
EXTT16=
EXTT17=
EXTT18=
EXTT19=
EXTT20=
EXTT21=
EXTT22=
PLAYORDER=
